<svg width="134" height="39" viewBox="0 0 134 39" fill="none" xmlns="http://www.w3.org/2000/svg">
<path d="M21.232 22.848C20.816 23.2 20.272 23.488 19.6 23.712C18.96 23.904 18.208 24 17.344 24C16.192 24 15.232 23.856 14.464 23.568C13.728 23.28 13.248 22.784 13.024 22.08C12.128 19.264 11.392 16.992 10.816 15.264C10.24 13.504 9.792 11.968 9.472 10.656H9.232C9.136 12.544 9.056 14.272 8.992 15.84C8.96 17.376 8.928 18.88 8.896 20.352C8.896 21.824 8.864 23.312 8.8 24.816C8.768 26.32 8.704 27.984 8.608 29.808C8.192 29.968 7.648 30.096 6.976 30.192C6.304 30.32 5.632 30.384 4.96 30.384C3.552 30.384 2.448 30.16 1.648 29.712C0.88 29.264 0.496 28.448 0.496 27.264L1.888 2.784C2.144 2.368 2.704 1.92 3.568 1.44C4.432 0.959999 5.648 0.719999 7.216 0.719999C8.912 0.719999 10.24 0.991999 11.2 1.536C12.16 2.048 12.864 2.896 13.312 4.08C13.6 4.848 13.904 5.728 14.224 6.72C14.576 7.712 14.912 8.736 15.232 9.792C15.584 10.848 15.92 11.904 16.24 12.96C16.56 13.984 16.848 14.912 17.104 15.744H17.344C18.112 13.056 18.88 10.464 19.648 7.968C20.416 5.44 21.12 3.328 21.76 1.632C22.24 1.376 22.848 1.168 23.584 1.008C24.352 0.815999 25.2 0.719999 26.128 0.719999C27.696 0.719999 28.976 0.959999 29.968 1.44C30.96 1.888 31.536 2.544 31.696 3.408C31.824 4.048 31.952 5.04 32.08 6.384C32.24 7.696 32.4 9.184 32.56 10.848C32.72 12.512 32.88 14.272 33.04 16.128C33.2 17.984 33.344 19.776 33.472 21.504C33.632 23.2 33.76 24.768 33.856 26.208C33.952 27.616 34.016 28.704 34.048 29.472C33.504 29.792 32.928 30.016 32.32 30.144C31.744 30.304 30.992 30.384 30.064 30.384C28.848 30.384 27.824 30.176 26.992 29.76C26.16 29.344 25.712 28.528 25.648 27.312C25.456 23.824 25.328 20.688 25.264 17.904C25.232 15.12 25.168 12.784 25.072 10.896H24.832C24.512 12.144 24.048 13.712 23.44 15.6C22.832 17.488 22.096 19.904 21.232 22.848ZM41.6909 24.048C41.3389 23.248 40.9549 22.352 40.5389 21.36C40.1549 20.368 39.7389 19.232 39.2909 17.952C38.8749 16.672 38.4269 15.216 37.9469 13.584C37.4989 11.92 37.0189 10.016 36.5069 7.872C36.9549 7.424 37.5469 7.04 38.2829 6.72C39.0509 6.368 39.8829 6.192 40.7789 6.192C41.8989 6.192 42.8269 6.432 43.5629 6.912C44.2989 7.36 44.8429 8.224 45.1949 9.504L48.9869 22.704H49.1789C49.5629 21.616 49.9309 20.432 50.2829 19.152C50.6669 17.872 51.0349 16.56 51.3869 15.216C51.7389 13.84 52.0589 12.48 52.3469 11.136C52.6669 9.76 52.9389 8.416 53.1629 7.104C54.3149 6.496 55.5789 6.192 56.9549 6.192C58.0749 6.192 59.0029 6.432 59.7389 6.912C60.4749 7.392 60.8429 8.224 60.8429 9.408C60.8429 10.272 60.7309 11.28 60.5069 12.432C60.2829 13.552 59.9789 14.752 59.5949 16.032C59.2429 17.312 58.8109 18.64 58.2989 20.016C57.8189 21.36 57.3069 22.688 56.7629 24C56.2189 25.312 55.6589 26.56 55.0829 27.744C54.5069 28.896 53.9469 29.936 53.4029 30.864C52.5069 32.432 51.6749 33.712 50.9069 34.704C50.1389 35.696 49.4029 36.464 48.6989 37.008C47.9949 37.584 47.2909 37.968 46.5869 38.16C45.8829 38.384 45.1469 38.496 44.3789 38.496C43.0349 38.496 41.9469 38.096 41.1149 37.296C40.2829 36.496 39.7869 35.456 39.6269 34.176C40.6509 33.376 41.6749 32.48 42.6989 31.488C43.7229 30.528 44.6509 29.536 45.4829 28.512C44.9389 28.352 44.3469 27.984 43.7069 27.408C43.0989 26.8 42.4269 25.68 41.6909 24.048Z" fill="black"/>
<path d="M76.0004 14.4C77.3444 14.4 78.3684 14.096 79.0724 13.488C79.8084 12.848 80.1764 11.888 80.1764 10.608C80.1764 9.392 79.7924 8.464 79.0244 7.824C78.2884 7.152 77.2004 6.816 75.7604 6.816C75.2484 6.816 74.8164 6.832 74.4644 6.864C74.1444 6.864 73.8084 6.896 73.4564 6.96V14.4H76.0004ZM73.5044 29.808C73.1524 29.904 72.5924 30 71.8244 30.096C71.0884 30.192 70.3524 30.24 69.6164 30.24C68.8804 30.24 68.2244 30.176 67.6484 30.048C67.1044 29.952 66.6404 29.76 66.2564 29.472C65.8724 29.184 65.5844 28.784 65.3924 28.272C65.2004 27.76 65.1044 27.088 65.1044 26.256V3.648C65.1044 2.976 65.2804 2.464 65.6324 2.112C66.0164 1.728 66.5284 1.424 67.1684 1.2C68.2564 0.815998 69.4884 0.543998 70.8644 0.383998C72.2724 0.191998 73.6804 0.0959988 75.0884 0.0959988C79.5044 0.0959988 82.8804 1.04 85.2164 2.928C87.5524 4.816 88.7204 7.376 88.7204 10.608C88.7204 12.176 88.4644 13.6 87.9524 14.88C87.4724 16.128 86.7364 17.216 85.7444 18.144C84.7844 19.04 83.5524 19.744 82.0484 20.256C80.5764 20.736 78.8644 20.976 76.9124 20.976H73.5044V29.808ZM104.004 30.768C102.116 30.768 100.356 30.512 98.7239 30C97.1239 29.456 95.7159 28.656 94.4999 27.6C93.3159 26.544 92.3719 25.216 91.6679 23.616C90.9959 22.016 90.6599 20.144 90.6599 18C90.6599 15.888 90.9959 14.08 91.6679 12.576C92.3719 11.04 93.2839 9.792 94.4039 8.832C95.5239 7.84 96.8039 7.12 98.2439 6.672C99.6839 6.192 101.156 5.952 102.66 5.952C104.356 5.952 105.892 6.208 107.268 6.72C108.676 7.232 109.876 7.936 110.868 8.832C111.892 9.728 112.676 10.8 113.22 12.048C113.796 13.296 114.084 14.656 114.084 16.128C114.084 17.216 113.78 18.048 113.172 18.624C112.564 19.2 111.716 19.568 110.628 19.728L98.7719 21.504C99.1239 22.56 99.8439 23.36 100.932 23.904C102.02 24.416 103.268 24.672 104.676 24.672C105.988 24.672 107.22 24.512 108.372 24.192C109.556 23.84 110.516 23.44 111.252 22.992C111.764 23.312 112.196 23.76 112.548 24.336C112.9 24.912 113.076 25.52 113.076 26.16C113.076 27.6 112.404 28.672 111.06 29.376C110.036 29.92 108.884 30.288 107.604 30.48C106.324 30.672 105.124 30.768 104.004 30.768ZM102.66 11.904C101.892 11.904 101.22 12.032 100.644 12.288C100.1 12.544 99.6519 12.88 99.2999 13.296C98.9479 13.68 98.6759 14.128 98.4839 14.64C98.3239 15.12 98.2279 15.616 98.1959 16.128L106.404 14.784C106.308 14.144 105.956 13.504 105.348 12.864C104.74 12.224 103.844 11.904 102.66 11.904ZM126.172 21.984C126.172 22.816 126.428 23.408 126.94 23.76C127.484 24.112 128.236 24.288 129.196 24.288C129.676 24.288 130.172 24.256 130.684 24.192C131.196 24.096 131.644 23.984 132.028 23.856C132.316 24.208 132.556 24.608 132.748 25.056C132.972 25.472 133.084 25.984 133.084 26.592C133.084 27.808 132.62 28.8 131.692 29.568C130.796 30.336 129.196 30.72 126.892 30.72C124.076 30.72 121.9 30.08 120.364 28.8C118.86 27.52 118.108 25.44 118.108 22.56V2.016C118.46 1.92 118.956 1.824 119.596 1.728C120.268 1.6 120.972 1.536 121.708 1.536C123.116 1.536 124.204 1.792 124.972 2.304C125.772 2.784 126.172 3.824 126.172 5.424V8.496H132.46C132.652 8.848 132.828 9.296 132.988 9.84C133.18 10.352 133.276 10.928 133.276 11.568C133.276 12.688 133.02 13.504 132.508 14.016C132.028 14.496 131.372 14.736 130.54 14.736H126.172V21.984Z" fill="white"/>
</svg>
